<svg width="36" height="36" viewBox="0 0 36 36" fill="none" xmlns="http://www.w3.org/2000/svg">
<path d="M16.8424 27.8838C16.8807 27.9221 16.9208 27.9583 16.9627 27.9927C16.9811 28.0078 17.0006 28.0208 17.0194 28.035C17.0432 28.0529 17.0666 28.0714 17.0913 28.0878C17.1145 28.1033 17.1385 28.1167 17.1621 28.1309C17.1842 28.1441 17.2058 28.158 17.2285 28.1701C17.2528 28.1832 17.2779 28.1942 17.3027 28.2059C17.3262 28.217 17.3493 28.2288 17.3734 28.2387C17.3978 28.2487 17.4225 28.2569 17.4472 28.2656C17.4729 28.2749 17.4982 28.2847 17.5245 28.2927C17.5492 28.3001 17.5743 28.3057 17.5991 28.3119C17.626 28.3187 17.6525 28.3262 17.6798 28.3316C17.7085 28.3373 17.7375 28.3407 17.7664 28.3448C17.7903 28.3482 17.8138 28.3528 17.8382 28.3552C17.8918 28.3604 17.9457 28.3634 17.9996 28.3634C18.0535 28.3634 18.1074 28.3606 18.161 28.3552C18.1856 28.3528 18.2094 28.3482 18.2337 28.3447C18.2623 28.3407 18.2909 28.3373 18.3193 28.3316C18.3471 28.3262 18.3742 28.3184 18.4015 28.3116C18.4258 28.3054 18.4504 28.3001 18.4745 28.2928C18.5013 28.2846 18.5272 28.2746 18.5535 28.2652C18.5776 28.2565 18.6019 28.2486 18.6257 28.2388C18.6502 28.2287 18.6737 28.2168 18.6976 28.2054C18.7221 28.1939 18.7469 28.183 18.7709 28.1701C18.7938 28.1579 18.8154 28.144 18.8375 28.1307C18.8612 28.1165 18.8852 28.1032 18.9082 28.0877C18.9325 28.0716 18.9553 28.0535 18.9785 28.0361C18.998 28.0215 19.018 28.008 19.037 27.9925C19.0768 27.9598 19.1149 27.9252 19.1514 27.889C19.1531 27.8872 19.1551 27.8859 19.1567 27.8842L26.7933 20.248C27.4324 19.609 27.4324 18.5729 26.7933 17.9339C26.1544 17.2949 25.1182 17.2948 24.4792 17.9338L19.636 22.7766V2.72724C19.636 1.82354 18.9033 1.09088 17.9996 1.09088C17.0959 1.09088 16.3633 1.82354 16.3633 2.72724V22.7765L11.5205 17.9339C10.8815 17.2948 9.8454 17.2948 9.20634 17.9339C8.56729 18.5729 8.56729 19.609 9.20634 20.248L16.8424 27.8838Z" fill="#CDD5F2"/>
<path d="M34.3636 17.4545C33.4599 17.4545 32.7273 18.1872 32.7273 19.0909V31.6363H3.27273V19.0909C3.27273 18.1872 2.54007 17.4545 1.63636 17.4545C0.732655 17.4545 0 18.1872 0 19.0909V33.2727C0 34.1764 0.732655 34.9091 1.63636 34.9091H34.3636C35.2673 34.9091 36 34.1764 36 33.2727V19.0909C36 18.1872 35.2673 17.4545 34.3636 17.4545Z" fill="#CDD5F2"/>
</svg>
