<svg width="73" height="69" viewBox="0 0 73 69" fill="none" xmlns="http://www.w3.org/2000/svg">
<ellipse cx="36.225" cy="34.5" rx="36.225" ry="34.5" fill="#170941"/>
<g clip-path="url(#clip0_11_199)">
<path d="M34.4421 11.5618C34.373 11.5691 34.1365 11.5946 33.9145 11.6164C32.2043 11.7838 30.5087 12.2714 28.9295 13.05C25.1198 14.9349 22.4963 18.3261 21.8523 22.1904C21.6012 23.7041 21.6667 25.4252 22.0379 26.9134C22.3253 28.0777 22.6965 28.9438 23.5916 30.5266C25.4983 33.9033 26.7463 36.5777 27.6087 39.1211C28.2054 40.8822 28.5111 42.305 28.5838 43.6513C28.6166 44.288 28.7476 45.4924 28.8058 45.7253C28.9332 46.2165 29.3443 46.7951 29.7082 46.9916C30.0939 47.2026 29.9302 47.199 35.4973 47.199C40.9844 47.199 40.8826 47.2026 41.2501 47.017C41.6358 46.8205 41.9159 46.4785 42.1161 45.9618C42.2107 45.718 42.2434 45.547 42.3162 44.8811C42.3635 44.4445 42.4144 43.8732 42.4254 43.6149C42.5382 41.308 43.5643 38.1168 45.4091 34.3363C46.0495 33.0227 46.8281 31.5709 47.4758 30.4829C47.7924 29.948 48.058 29.4459 48.2691 28.9692C49.4662 26.2766 49.6408 23.2711 48.753 20.5457C47.6978 17.2964 45.2562 14.5783 41.9596 12.9918C40.4714 12.275 38.9686 11.842 37.2621 11.6273C36.8182 11.5727 34.7732 11.5254 34.4421 11.5618Z" fill="#314885"/>
<path d="M30.1558 47.9085C29.7992 48.0068 29.5335 48.2032 29.3589 48.498C29.2315 48.7163 29.2061 49.0765 29.2934 49.3494C29.4062 49.6878 29.8137 50.0226 30.2031 50.0954L30.3413 50.1208L30.1376 50.1827C29.5663 50.361 29.2388 50.7576 29.2388 51.2743C29.2388 51.5654 29.3298 51.7764 29.5408 51.9984C29.7009 52.1621 30.0684 52.3659 30.214 52.3659C30.2576 52.3659 30.294 52.3804 30.294 52.4023C30.294 52.4205 30.2576 52.4387 30.214 52.4387C30.1667 52.4387 30.032 52.486 29.912 52.5442C29.3116 52.8316 29.0751 53.4466 29.348 53.996C29.479 54.2544 29.6463 54.4145 29.9302 54.5454L30.1303 54.6401H35.5155H40.9008L41.0718 54.56C41.3046 54.4508 41.5594 54.2071 41.6758 53.9851C41.8031 53.7377 41.8104 53.3738 41.6903 53.1118C41.5412 52.788 41.0681 52.4387 40.7734 52.4387C40.7334 52.4387 40.7006 52.4205 40.7006 52.4023C40.7006 52.3804 40.7334 52.3659 40.7734 52.3659C41.0681 52.3659 41.5412 52.0166 41.6903 51.6927C41.8104 51.4307 41.8031 51.0669 41.6758 50.8194C41.5084 50.4992 41.21 50.27 40.8171 50.1645C40.7225 50.139 40.6824 50.1135 40.7261 50.1135C40.9044 50.1063 41.2173 49.9534 41.4065 49.7788C41.6685 49.5386 41.7668 49.3276 41.7704 49.0001C41.774 48.5526 41.5339 48.2069 41.0718 47.9886L40.828 47.8721L35.5883 47.8648C31.1455 47.8576 30.3195 47.8648 30.1558 47.9085Z" fill="#314885"/>
<path d="M31.5311 55.1167C31.5311 55.1749 31.8186 55.4842 32.0697 55.6989C32.7428 56.2738 33.5251 56.6559 34.4057 56.8487C34.9442 56.9652 35.8248 56.9797 36.3997 56.8815C37.4731 56.6995 38.3791 56.2447 39.1396 55.5061C39.3361 55.3132 39.4998 55.1422 39.4998 55.124C39.4998 55.1094 37.706 55.0949 35.5155 55.0949C33.325 55.0949 31.5311 55.1058 31.5311 55.1167Z" fill="#314885"/>
</g>
<defs>
<clipPath id="clip0_11_199">
<rect width="46.575" height="46.575" fill="white" transform="translate(12.9375 11.2125)"/>
</clipPath>
</defs>
</svg>
