<svg width="73" height="69" viewBox="0 0 73 69" fill="none" xmlns="http://www.w3.org/2000/svg">
<ellipse cx="36.225" cy="34.5" rx="36.225" ry="34.5" fill="#A1A0DF"/>
<g clip-path="url(#clip0_11_200)">
<path d="M34.442 11.5618C34.3728 11.5691 34.1363 11.5946 33.9144 11.6164C32.2042 11.7838 30.5086 12.2714 28.9294 13.05C25.1197 14.9349 22.4962 18.3261 21.8522 22.1904C21.6011 23.7041 21.6666 25.4252 22.0378 26.9134C22.3252 28.0777 22.6964 28.9438 23.5915 30.5266C25.4981 33.9033 26.7462 36.5777 27.6086 39.1211C28.2053 40.8822 28.5109 42.305 28.5837 43.6513C28.6165 44.288 28.7475 45.4924 28.8057 45.7253C28.933 46.2165 29.3442 46.7951 29.7081 46.9916C30.0938 47.2026 29.93 47.199 35.4972 47.199C40.9843 47.199 40.8824 47.2026 41.2499 47.017C41.6356 46.8205 41.9158 46.4785 42.1159 45.9618C42.2105 45.718 42.2433 45.547 42.3161 44.8811C42.3634 44.4445 42.4143 43.8732 42.4252 43.6149C42.538 41.308 43.5641 38.1168 45.4089 34.3363C46.0493 33.0227 46.828 31.5709 47.4757 30.4829C47.7923 29.948 48.0579 29.4459 48.2689 28.9692C49.4661 26.2766 49.6407 23.2711 48.7529 20.5457C47.6977 17.2964 45.2561 14.5783 41.9595 12.9918C40.4713 12.275 38.9685 11.842 37.262 11.6273C36.818 11.5727 34.7731 11.5254 34.442 11.5618Z" fill="#314885"/>
<path d="M30.1555 47.9085C29.7989 48.0068 29.5333 48.2032 29.3586 48.498C29.2313 48.7163 29.2058 49.0765 29.2931 49.3494C29.4059 49.6878 29.8135 50.0226 30.2028 50.0954L30.3411 50.1208L30.1373 50.1827C29.566 50.361 29.2386 50.7576 29.2386 51.2743C29.2386 51.5654 29.3295 51.7764 29.5406 51.9984C29.7007 52.1621 30.0682 52.3659 30.2137 52.3659C30.2574 52.3659 30.2938 52.3804 30.2938 52.4023C30.2938 52.4205 30.2574 52.4387 30.2137 52.4387C30.1664 52.4387 30.0318 52.486 29.9117 52.5442C29.3113 52.8316 29.0748 53.4466 29.3477 53.996C29.4787 54.2544 29.6461 54.4145 29.9299 54.5454L30.13 54.6401H35.5153H40.9005L41.0715 54.56C41.3044 54.4508 41.5591 54.2071 41.6755 53.9851C41.8029 53.7377 41.8102 53.3738 41.6901 53.1118C41.5409 52.788 41.0679 52.4387 40.7732 52.4387C40.7331 52.4387 40.7004 52.4205 40.7004 52.4023C40.7004 52.3804 40.7331 52.3659 40.7732 52.3659C41.0679 52.3659 41.5409 52.0166 41.6901 51.6927C41.8102 51.4307 41.8029 51.0669 41.6755 50.8194C41.5082 50.4992 41.2098 50.27 40.8168 50.1645C40.7222 50.139 40.6822 50.1135 40.7259 50.1135C40.9041 50.1063 41.2171 49.9534 41.4063 49.7788C41.6683 49.5386 41.7665 49.3276 41.7702 49.0001C41.7738 48.5526 41.5336 48.2069 41.0715 47.9886L40.8277 47.8721L35.588 47.8648C31.1452 47.8576 30.3193 47.8648 30.1555 47.9085Z" fill="#314885"/>
<path d="M31.531 55.1167C31.531 55.1749 31.8185 55.4842 32.0695 55.6989C32.7427 56.2738 33.525 56.6559 34.4056 56.8487C34.9441 56.9652 35.8246 56.9797 36.3995 56.8815C37.473 56.6995 38.379 56.2447 39.1395 55.5061C39.336 55.3132 39.4997 55.1422 39.4997 55.124C39.4997 55.1094 37.7058 55.0949 35.5154 55.0949C33.3249 55.0949 31.531 55.1058 31.531 55.1167Z" fill="#314885"/>
</g>
<defs>
<clipPath id="clip0_11_200">
<rect width="46.575" height="46.575" fill="white" transform="translate(12.9375 11.2125)"/>
</clipPath>
</defs>
</svg>
