<svg width="401" height="82" viewBox="0 0 401 82" fill="none" xmlns="http://www.w3.org/2000/svg">
<path d="M35.1875 24.0312V28.4375L7.75 40.5938L35.1875 52.6875V57.125L3.1875 42.8438V38.2812L35.1875 24.0312ZM40.3438 66.8438L58.1875 14.375H62.2188L44.375 66.8438H40.3438ZM94.7188 40.5938L67.3438 28.4375V24.0312L99.3438 38.2812V42.8438L67.3438 57.125V52.6875L94.7188 40.5938Z" fill="url(#paint0_linear_3_4)"/>
<path d="M134.152 33.984C135.475 33.984 136.637 34.2507 137.64 34.784C138.643 35.296 139.432 35.968 140.008 36.8V34.272H144.52V52.128C144.52 53.7707 144.189 55.232 143.528 56.512C142.867 57.8133 141.875 58.8373 140.552 59.584C139.229 60.352 137.629 60.736 135.752 60.736C133.235 60.736 131.165 60.1493 129.544 58.976C127.944 57.8027 127.037 56.2027 126.824 54.176H131.272C131.507 54.9867 132.008 55.6267 132.776 56.096C133.565 56.5867 134.515 56.832 135.624 56.832C136.925 56.832 137.981 56.4373 138.792 55.648C139.603 54.88 140.008 53.7067 140.008 52.128V49.376C139.432 50.208 138.632 50.9013 137.608 51.456C136.605 52.0107 135.453 52.288 134.152 52.288C132.659 52.288 131.293 51.904 130.056 51.136C128.819 50.368 127.837 49.2907 127.112 47.904C126.408 46.496 126.056 44.8853 126.056 43.072C126.056 41.28 126.408 39.6907 127.112 38.304C127.837 36.9173 128.808 35.8507 130.024 35.104C131.261 34.3573 132.637 33.984 134.152 33.984ZM140.008 43.136C140.008 42.048 139.795 41.12 139.368 40.352C138.941 39.5627 138.365 38.9653 137.64 38.56C136.915 38.1333 136.136 37.92 135.304 37.92C134.472 37.92 133.704 38.1227 133 38.528C132.296 38.9333 131.72 39.5307 131.272 40.32C130.845 41.088 130.632 42.0053 130.632 43.072C130.632 44.1387 130.845 45.0773 131.272 45.888C131.72 46.6773 132.296 47.2853 133 47.712C133.725 48.1387 134.493 48.352 135.304 48.352C136.136 48.352 136.915 48.1493 137.64 47.744C138.365 47.3173 138.941 46.72 139.368 45.952C139.795 45.1627 140.008 44.224 140.008 43.136ZM147.743 43.072C147.743 41.28 148.095 39.6907 148.799 38.304C149.525 36.9173 150.496 35.8507 151.712 35.104C152.949 34.3573 154.325 33.984 155.84 33.984C157.162 33.984 158.314 34.2507 159.296 34.784C160.298 35.3173 161.098 35.9893 161.696 36.8V34.272H166.208V52H161.696V49.408C161.12 50.24 160.32 50.9333 159.296 51.488C158.293 52.0213 157.13 52.288 155.808 52.288C154.314 52.288 152.949 51.904 151.712 51.136C150.496 50.368 149.525 49.2907 148.799 47.904C148.095 46.496 147.743 44.8853 147.743 43.072ZM161.696 43.136C161.696 42.048 161.482 41.12 161.056 40.352C160.629 39.5627 160.053 38.9653 159.328 38.56C158.602 38.1333 157.824 37.92 156.992 37.92C156.16 37.92 155.392 38.1227 154.688 38.528C153.984 38.9333 153.408 39.5307 152.96 40.32C152.533 41.088 152.32 42.0053 152.32 43.072C152.32 44.1387 152.533 45.0773 152.96 45.888C153.408 46.6773 153.984 47.2853 154.688 47.712C155.413 48.1387 156.181 48.352 156.992 48.352C157.824 48.352 158.602 48.1493 159.328 47.744C160.053 47.3173 160.629 46.72 161.056 45.952C161.482 45.1627 161.696 44.224 161.696 43.136ZM175.063 36.864C175.639 36.0107 176.428 35.3173 177.431 34.784C178.455 34.2507 179.618 33.984 180.919 33.984C182.434 33.984 183.799 34.3573 185.015 35.104C186.252 35.8507 187.223 36.9173 187.927 38.304C188.652 39.6693 189.015 41.2587 189.015 43.072C189.015 44.8853 188.652 46.496 187.927 47.904C187.223 49.2907 186.252 50.368 185.015 51.136C183.799 51.904 182.434 52.288 180.919 52.288C179.596 52.288 178.434 52.032 177.431 51.52C176.45 50.9867 175.66 50.304 175.063 49.472V52H170.583V28.32H175.063V36.864ZM184.439 43.072C184.439 42.0053 184.215 41.088 183.767 40.32C183.34 39.5307 182.764 38.9333 182.039 38.528C181.335 38.1227 180.567 37.92 179.735 37.92C178.924 37.92 178.156 38.1333 177.431 38.56C176.727 38.9653 176.151 39.5627 175.703 40.352C175.276 41.1413 175.063 42.0693 175.063 43.136C175.063 44.2027 175.276 45.1307 175.703 45.92C176.151 46.7093 176.727 47.3173 177.431 47.744C178.156 48.1493 178.924 48.352 179.735 48.352C180.567 48.352 181.335 48.1387 182.039 47.712C182.764 47.2853 183.34 46.6773 183.767 45.888C184.215 45.0987 184.439 44.16 184.439 43.072ZM196.751 37.024C197.327 36.0853 198.073 35.3493 198.991 34.816C199.929 34.2827 200.996 34.016 202.191 34.016V38.72H201.007C199.599 38.72 198.532 39.0507 197.807 39.712C197.103 40.3733 196.751 41.5253 196.751 43.168V52H192.271V34.272H196.751V37.024ZM207.48 32.16C206.691 32.16 206.029 31.9147 205.496 31.424C204.984 30.912 204.728 30.2827 204.728 29.536C204.728 28.7893 204.984 28.1707 205.496 27.68C206.029 27.168 206.691 26.912 207.48 26.912C208.269 26.912 208.92 27.168 209.432 27.68C209.965 28.1707 210.232 28.7893 210.232 29.536C210.232 30.2827 209.965 30.912 209.432 31.424C208.92 31.9147 208.269 32.16 207.48 32.16ZM209.688 34.272V52H205.208V34.272H209.688ZM230.594 42.752C230.594 43.392 230.552 43.968 230.466 44.48H217.506C217.613 45.76 218.061 46.7627 218.85 47.488C219.64 48.2133 220.61 48.576 221.762 48.576C223.426 48.576 224.61 47.8613 225.314 46.432H230.146C229.634 48.1387 228.653 49.5467 227.202 50.656C225.752 51.744 223.97 52.288 221.858 52.288C220.152 52.288 218.616 51.9147 217.25 51.168C215.906 50.4 214.85 49.3227 214.082 47.936C213.336 46.5493 212.962 44.9493 212.962 43.136C212.962 41.3013 213.336 39.6907 214.082 38.304C214.829 36.9173 215.874 35.8507 217.218 35.104C218.562 34.3573 220.109 33.984 221.858 33.984C223.544 33.984 225.048 34.3467 226.37 35.072C227.714 35.7973 228.749 36.832 229.474 38.176C230.221 39.4987 230.594 41.024 230.594 42.752ZM225.954 41.472C225.933 40.32 225.517 39.4027 224.706 38.72C223.896 38.016 222.904 37.664 221.73 37.664C220.621 37.664 219.682 38.0053 218.914 38.688C218.168 39.3493 217.709 40.2773 217.538 41.472H225.954ZM238.344 28.32V52H233.864V28.32H238.344ZM262.771 53.28V57.536H243.987V53.28H262.771ZM272.532 36.832C273.108 36.0213 273.897 35.3493 274.9 34.816C275.924 34.2613 277.086 33.984 278.388 33.984C279.902 33.984 281.268 34.3573 282.484 35.104C283.721 35.8507 284.692 36.9173 285.396 38.304C286.121 39.6693 286.484 41.2587 286.484 43.072C286.484 44.8853 286.121 46.496 285.396 47.904C284.692 49.2907 283.721 50.368 282.484 51.136C281.268 51.904 279.902 52.288 278.388 52.288C277.086 52.288 275.934 52.0213 274.932 51.488C273.95 50.9547 273.15 50.2827 272.532 49.472V60.448H268.052V34.272H272.532V36.832ZM281.908 43.072C281.908 42.0053 281.684 41.088 281.236 40.32C280.809 39.5307 280.233 38.9333 279.508 38.528C278.804 38.1227 278.036 37.92 277.204 37.92C276.393 37.92 275.625 38.1333 274.9 38.56C274.196 38.9653 273.62 39.5627 273.172 40.352C272.745 41.1413 272.532 42.0693 272.532 43.136C272.532 44.2027 272.745 45.1307 273.172 45.92C273.62 46.7093 274.196 47.3173 274.9 47.744C275.625 48.1493 276.393 48.352 277.204 48.352C278.036 48.352 278.804 48.1387 279.508 47.712C280.233 47.2853 280.809 46.6773 281.236 45.888C281.684 45.0987 281.908 44.16 281.908 43.072ZM292.011 32.16C291.222 32.16 290.561 31.9147 290.027 31.424C289.515 30.912 289.259 30.2827 289.259 29.536C289.259 28.7893 289.515 28.1707 290.027 27.68C290.561 27.168 291.222 26.912 292.011 26.912C292.801 26.912 293.451 27.168 293.963 27.68C294.497 28.1707 294.763 28.7893 294.763 29.536C294.763 30.2827 294.497 30.912 293.963 31.424C293.451 31.9147 292.801 32.16 292.011 32.16ZM294.219 34.272V52H289.739V34.272H294.219ZM308.47 34.016C310.582 34.016 312.288 34.688 313.59 36.032C314.891 37.3547 315.542 39.2107 315.542 41.6V52H311.062V42.208C311.062 40.8 310.71 39.7227 310.006 38.976C309.302 38.208 308.342 37.824 307.126 37.824C305.888 37.824 304.907 38.208 304.182 38.976C303.478 39.7227 303.126 40.8 303.126 42.208V52H298.646V34.272H303.126V36.48C303.723 35.712 304.48 35.1147 305.398 34.688C306.336 34.24 307.36 34.016 308.47 34.016ZM329.786 34.016C331.13 34.016 332.324 34.3147 333.37 34.912C334.415 35.488 335.226 36.352 335.802 37.504C336.399 38.6347 336.698 40 336.698 41.6V52H332.218V42.208C332.218 40.8 331.866 39.7227 331.162 38.976C330.458 38.208 329.498 37.824 328.282 37.824C327.044 37.824 326.063 38.208 325.338 38.976C324.634 39.7227 324.282 40.8 324.282 42.208V52H319.802V28.32H324.282V36.48C324.858 35.712 325.626 35.1147 326.586 34.688C327.546 34.24 328.612 34.016 329.786 34.016ZM357.438 42.752C357.438 43.392 357.395 43.968 357.31 44.48H344.35C344.457 45.76 344.905 46.7627 345.694 47.488C346.483 48.2133 347.454 48.576 348.606 48.576C350.27 48.576 351.454 47.8613 352.158 46.432H356.99C356.478 48.1387 355.497 49.5467 354.046 50.656C352.595 51.744 350.814 52.288 348.702 52.288C346.995 52.288 345.459 51.9147 344.094 51.168C342.75 50.4 341.694 49.3227 340.926 47.936C340.179 46.5493 339.806 44.9493 339.806 43.136C339.806 41.3013 340.179 39.6907 340.926 38.304C341.673 36.9173 342.718 35.8507 344.062 35.104C345.406 34.3573 346.953 33.984 348.702 33.984C350.387 33.984 351.891 34.3467 353.214 35.072C354.558 35.7973 355.593 36.832 356.318 38.176C357.065 39.4987 357.438 41.024 357.438 42.752ZM352.798 41.472C352.777 40.32 352.361 39.4027 351.55 38.72C350.739 38.016 349.747 37.664 348.574 37.664C347.465 37.664 346.526 38.0053 345.758 38.688C345.011 39.3493 344.553 40.2773 344.382 41.472H352.798ZM362.98 32.16C362.191 32.16 361.529 31.9147 360.996 31.424C360.484 30.912 360.228 30.2827 360.228 29.536C360.228 28.7893 360.484 28.1707 360.996 27.68C361.529 27.168 362.191 26.912 362.98 26.912C363.769 26.912 364.42 27.168 364.932 27.68C365.465 28.1707 365.732 28.7893 365.732 29.536C365.732 30.2827 365.465 30.912 364.932 31.424C364.42 31.9147 363.769 32.16 362.98 32.16ZM365.188 34.272V52H360.708V34.272H365.188ZM374.094 37.024C374.67 36.0853 375.417 35.3493 376.334 34.816C377.273 34.2827 378.34 34.016 379.534 34.016V38.72H378.35C376.942 38.72 375.876 39.0507 375.15 39.712C374.446 40.3733 374.094 41.5253 374.094 43.168V52H369.614V34.272H374.094V37.024ZM390.424 52.288C388.717 52.288 387.181 51.9147 385.816 51.168C384.45 50.4 383.373 49.3227 382.584 47.936C381.816 46.5493 381.432 44.9493 381.432 43.136C381.432 41.3227 381.826 39.7227 382.616 38.336C383.426 36.9493 384.525 35.8827 385.912 35.136C387.298 34.368 388.845 33.984 390.552 33.984C392.258 33.984 393.805 34.368 395.192 35.136C396.578 35.8827 397.666 36.9493 398.456 38.336C399.266 39.7227 399.672 41.3227 399.672 43.136C399.672 44.9493 399.256 46.5493 398.424 47.936C397.613 49.3227 396.504 50.4 395.096 51.168C393.709 51.9147 392.152 52.288 390.424 52.288ZM390.424 48.384C391.234 48.384 391.992 48.192 392.696 47.808C393.421 47.4027 393.997 46.8053 394.424 46.016C394.85 45.2267 395.064 44.2667 395.064 43.136C395.064 41.4507 394.616 40.16 393.72 39.264C392.845 38.3467 391.768 37.888 390.488 37.888C389.208 37.888 388.13 38.3467 387.256 39.264C386.402 40.16 385.976 41.4507 385.976 43.136C385.976 44.8213 386.392 46.1227 387.224 47.04C388.077 47.936 389.144 48.384 390.424 48.384Z" fill="url(#paint1_linear_3_4)"/>
<defs>
<linearGradient id="paint0_linear_3_4" x1="51.5" y1="-4.37222e-07" x2="63.0009" y2="89.1152" gradientUnits="userSpaceOnUse">
<stop stop-color="#9DACE0"/>
<stop offset="1" stop-color="#2B3D7A" stop-opacity="0.7"/>
</linearGradient>
<linearGradient id="paint1_linear_3_4" x1="263" y1="17" x2="264.494" y2="69.9917" gradientUnits="userSpaceOnUse">
<stop stop-color="#9DACE0"/>
<stop offset="1" stop-color="#2B3D7A" stop-opacity="0.7"/>
</linearGradient>
</defs>
</svg>
